# xmcd
#
# Track frame offsets:
#	150
#	17672
#	30076
#	46958
#	64976
#	84091
#	99544
#	114069
#	133941
#	153074
#	169988
#	184342
#
# Disc length: 2682 seconds
#
# Revision: 1
# Processed by: cddbd v1.5.1PL2 Copyright (c) Steve Scherf et al.
# Submitted via: EasyCDDAExtractor 5.0.6
#
DISCID=8a0a780c
DTITLE=The Gin Club - Fear Of The Sea
DYEAR=2005
DGENRE=Folk-Rock
TTITLE0=I've Been Waiting
TTITLE1=Jim
TTITLE2=Gabriel
TTITLE3=Campus Blues
TTITLE4=Fear Of The Sea
TTITLE5=I Was A Young Boy
TTITLE6=Drug Flowers
TTITLE7=Pirate Song
TTITLE8=Travelling Song
TTITLE9=Sometimes Sober
TTITLE10=Honey Don't
TTITLE11=Small Craft Warnings
EXTD=
EXTT0=
EXTT1=
EXTT2=
EXTT3=
EXTT4=
EXTT5=
EXTT6=
EXTT7=
EXTT8=
EXTT9=
EXTT10=
EXTT11=
PLAYORDER=
